<?xml version="1.0" encoding="UTF-8"?>
<svg id="Layer_1" data-name="Layer 1" xmlns="http://www.w3.org/2000/svg" viewBox="0 0 707.2 516.21">
  <defs>
    <style>
      .cls-1 {
        fill: #5ce1e6;
      }

      .cls-2 {
        fill: #0cc1e0;
      }

      .cls-3 {
        fill: #0097b2;
      }

      .cls-4 {
        fill: #375b6a;
      }
    </style>
  </defs>
  <g>
    <path class="cls-3" d="m29.17,220.04c-1.99,12.47-3.02,25.19-3.02,38.07,0,63.7,24.81,123.59,69.85,168.64,45.05,45.04,104.94,69.85,168.65,69.85,9.44,0,18.98-.56,28.34-1.67,25.5-3.03,43.72-26.15,40.7-51.65-3.02-25.5-26.16-43.71-51.65-40.7-5.74.68-11.59,1.03-17.38,1.03-80.23,0-145.5-65.27-145.5-145.49,0-10.21,1.06-20.17,3.08-29.78-4.95-41.16-67.2-64.35-93.05-8.28Z"/>
    <path class="cls-1" d="m361.51,40.11c-37.7-18.91-69.76-20.5-96.86-20.5-44.54,0-87.21,12.14-124.25,34.83,16.53-4.08,42.45-5.28,56.74,20.61,13.96,25.28,2.04,46.88-8.88,59.54,22.22-13.75,48.39-21.77,76.39-21.98,21.08-.15,37.15,1.59,55.15,10.62,6.69,3.36,13.81,4.95,20.82,4.95,17.03,0,33.44-9.4,41.6-25.66,11.52-22.95,2.24-50.9-20.71-62.41Z"/>
    <path class="cls-2" d="m197.14,75.05c-14.29-25.88-40.21-24.68-56.74-20.61-15.94,9.76-30.85,21.47-44.4,35.02-35.94,35.94-58.98,81.34-66.83,130.58,25.85-56.07,88.11-32.88,93.05,8.28,8.28-39.53,32.7-73.1,66.04-93.74,10.92-12.66,22.84-34.26,8.88-59.54Z"/>
  </g>
  <g>
    <path class="cls-4" d="m211.67,276.9l-17.38-39.62c-.19-.49-.52-.73-.99-.73h-12.86c-.56,0-.85.29-.85.87v38.89c0,1.65-.8,2.48-2.4,2.48h-15.12c-1.6,0-2.4-.82-2.4-2.48v-97.15c0-1.65.8-2.48,2.4-2.48h39.7c6.03,0,11.32,1.29,15.89,3.86,4.57,2.57,8.1,6.19,10.6,10.85,2.49,4.66,3.74,10,3.74,16.02,0,6.6-1.6,12.28-4.8,17.04-3.2,4.76-7.63,8.11-13.28,10.05-.28.1-.47.27-.56.51-.1.24-.05.46.14.66l18.65,40.2c.28.39.42.83.42,1.31s-.19.87-.56,1.17c-.38.29-.9.44-1.55.44h-15.96c-1.23,0-2.17-.63-2.83-1.89Zm-32.07-81.56v24.47c0,.58.28.87.85.87h18.37c3.96,0,7.18-1.19,9.68-3.57,2.49-2.38,3.74-5.51,3.74-9.39s-1.25-7.06-3.74-9.54c-2.5-2.48-5.72-3.71-9.68-3.71h-18.37c-.56,0-.85.29-.85.87Z"/>
    <path class="cls-4" d="m293.19,206.04c4.8,2.18,8.55,5.17,11.23,8.96,2.68,3.79,4.03,8.01,4.03,12.67v48.65c0,1.65-.8,2.48-2.4,2.48h-15.12c-1.6,0-2.4-.82-2.4-2.48v-3.5c0-.39-.09-.61-.28-.66-.19-.05-.42.07-.71.36-4.33,4.95-10.79,7.43-19.36,7.43-7.25,0-13.09-1.84-17.52-5.53-4.43-3.69-6.64-9.13-6.64-16.31s2.54-13.28,7.63-17.4c5.09-4.13,12.34-6.19,21.76-6.19h14.27c.57,0,.85-.29.85-.87v-3.06c0-3.2-.97-5.7-2.9-7.5-1.93-1.8-4.73-2.69-8.41-2.69-2.83,0-5.16.49-6.99,1.46-1.84.97-3.09,2.33-3.74,4.08-.56,1.36-1.51,1.99-2.83,1.89l-15.68-2.04c-.75-.1-1.34-.31-1.77-.66-.42-.34-.59-.8-.49-1.38.47-3.98,2.09-7.57,4.87-10.78,2.78-3.2,6.45-5.7,11.02-7.5,4.57-1.8,9.63-2.69,15.19-2.69,6.12,0,11.58,1.09,16.39,3.28Zm-8.9,55.27c2.83-2.23,4.24-5.1,4.24-8.59v-5.1c0-.58-.28-.87-.85-.87h-10.03c-4.24,0-7.58.83-10.03,2.48-2.45,1.65-3.67,3.98-3.67,6.99,0,2.62.92,4.69,2.75,6.19,1.84,1.51,4.26,2.26,7.28,2.26,4.05,0,7.49-1.12,10.31-3.35Z"/>
    <path class="cls-4" d="m371.04,176.84h15.12c1.6,0,2.4.83,2.4,2.48v97c0,1.65-.8,2.48-2.4,2.48h-15.12c-1.6,0-2.4-.82-2.4-2.48v-3.93c0-.39-.12-.61-.35-.66-.24-.05-.45.07-.64.36-3.86,5.24-9.23,7.87-16.11,7.87-6.41,0-12.08-1.97-17.02-5.9s-8.36-9.1-10.24-15.51c-1.6-4.66-2.4-10.49-2.4-17.48s.89-13.2,2.68-18.06c2.07-6.21,5.49-11.16,10.24-14.86,4.75-3.69,10.34-5.53,16.74-5.53,6.97,0,12.34,2.38,16.11,7.14.19.29.4.39.64.29.23-.1.35-.34.35-.73v-30c0-1.65.8-2.48,2.4-2.48Zm-2.54,64.52c0-6.41-.99-11.41-2.97-15-2.36-3.79-5.51-5.68-9.47-5.68-4.33,0-7.63,1.85-9.89,5.54-2.26,3.88-3.39,8.98-3.39,15.29,0,5.73.99,10.49,2.97,14.27,2.26,4.18,5.7,6.26,10.31,6.26,4.14,0,7.35-2.09,9.61-6.26,1.88-3.59,2.83-8.4,2.83-14.42Z"/>
    <path class="cls-4" d="m408.33,193.37c-2.26-2.28-3.39-5.22-3.39-8.81s1.13-6.53,3.39-8.81c2.26-2.28,5.18-3.42,8.76-3.42s6.62,1.12,8.83,3.35c2.21,2.23,3.32,5.2,3.32,8.88s-1.11,6.65-3.32,8.88c-2.21,2.23-5.16,3.35-8.83,3.35s-6.5-1.14-8.76-3.42Zm-1.13,82.95v-69.91c0-1.65.8-2.48,2.4-2.48h15.12c1.6,0,2.4.83,2.4,2.48v69.91c0,1.65-.8,2.48-2.4,2.48h-15.12c-1.6,0-2.4-.82-2.4-2.48Z"/>
    <path class="cls-4" d="m490.84,206.04c4.8,2.18,8.55,5.17,11.23,8.96s4.03,8.01,4.03,12.67v48.65c0,1.65-.8,2.48-2.4,2.48h-15.12c-1.6,0-2.4-.82-2.4-2.48v-3.5c0-.39-.1-.61-.28-.66-.19-.05-.42.07-.71.36-4.33,4.95-10.79,7.43-19.36,7.43-7.25,0-13.09-1.84-17.52-5.53-4.43-3.69-6.64-9.13-6.64-16.31s2.54-13.28,7.63-17.4c5.09-4.13,12.34-6.19,21.76-6.19h14.27c.56,0,.85-.29.85-.87v-3.06c0-3.2-.97-5.7-2.9-7.5-1.93-1.8-4.73-2.69-8.41-2.69-2.83,0-5.16.49-6.99,1.46-1.84.97-3.09,2.33-3.74,4.08-.57,1.36-1.51,1.99-2.83,1.89l-15.68-2.04c-.75-.1-1.34-.31-1.77-.66-.42-.34-.59-.8-.5-1.38.47-3.98,2.1-7.57,4.88-10.78,2.78-3.2,6.45-5.7,11.02-7.5,4.57-1.8,9.63-2.69,15.19-2.69,6.12,0,11.58,1.09,16.39,3.28Zm-8.9,55.27c2.83-2.23,4.24-5.1,4.24-8.59v-5.1c0-.58-.28-.87-.85-.87h-10.03c-4.24,0-7.58.83-10.03,2.48-2.45,1.65-3.67,3.98-3.67,6.99,0,2.62.92,4.69,2.75,6.19,1.84,1.51,4.26,2.26,7.28,2.26,4.05,0,7.49-1.12,10.31-3.35Z"/>
    <path class="cls-4" d="m630.55,277.04c-4.71-1.84-8.34-4.42-10.88-7.72-2.54-3.3-3.81-7.04-3.81-11.22v-.73c0-1.65.8-2.48,2.4-2.48h14.27c1.6,0,2.4.29,2.4.87v1.02c0,2.14,1.13,3.96,3.39,5.46,2.26,1.51,5.13,2.26,8.62,2.26,3.2,0,5.79-.63,7.77-1.89,1.98-1.26,2.97-2.91,2.97-4.95,0-1.75-.85-3.06-2.54-3.93s-4.47-1.8-8.34-2.77c-4.62-1.26-8.05-2.38-10.31-3.35-6.12-2.13-10.97-4.76-14.55-7.87-3.58-3.11-5.37-7.57-5.37-13.4,0-7.18,2.73-12.89,8.19-17.11,5.46-4.22,12.62-6.34,21.47-6.34,6.03,0,11.33,1,15.89,2.99,4.57,1.99,8.1,4.78,10.6,8.38,2.49,3.59,3.74,7.67,3.74,12.23,0,.49-.21.9-.64,1.24-.42.34-1.01.51-1.77.51h-13.84c-1.6,0-2.4-.29-2.4-.87v-.87c0-2.13-1.04-3.93-3.11-5.39-2.07-1.46-4.85-2.19-8.34-2.19-3.11,0-5.68.58-7.7,1.75-2.03,1.17-3.04,2.77-3.04,4.81s.96,3.4,2.9,4.37c1.93.97,5.11,1.99,9.54,3.06,2.73.58,5.37,1.31,7.91,2.19,6.78,2.04,12.1,4.66,15.96,7.86,3.86,3.21,5.79,7.87,5.79,13.98,0,7.19-2.78,12.79-8.34,16.82-5.56,4.03-13,6.04-22.32,6.04-6.31,0-11.82-.92-16.53-2.77Z"/>
    <path class="cls-4" d="m594.32,221.4v34.41c0,4,3.24,7.24,7.24,7.24h1.12c.68,0,1.23.55,1.23,1.23v12.47c0,.68-.55,1.23-1.23,1.23h-13.69c-7.82,0-14.16-6.34-14.16-14.16v-42.43h-25.35v55.9c0,.57-.46,1.04-1.04,1.04h-17.43c-.57,0-1.04-.46-1.04-1.04v-55.9h-10.44c-.7,0-1.27-.57-1.27-1.27v-14.59c0-.7.57-1.27,1.27-1.27h84.18c.7,0,1.27.57,1.27,1.27v14.59c0,.7-.57,1.27-1.27,1.27h-9.38Z"/>
  </g>
  <g>
    <path class="cls-4" d="m194.69,345.33v-27.08c0-.35.17-.52.51-.52h9.08c2.57,0,4.62.7,6.14,2.09,1.52,1.39,2.28,3.28,2.28,5.67v12.61c0,2.38-.76,4.27-2.28,5.67-1.52,1.39-3.57,2.09-6.14,2.09h-9.08c-.34,0-.51-.17-.51-.52Zm2.96-1.97h6.74c1.69,0,3.03-.51,4.03-1.53,1-1.02,1.5-2.38,1.5-4.1v-11.85c0-1.74-.49-3.12-1.48-4.14-.99-1.02-2.34-1.53-4.05-1.53h-6.74c-.13,0-.19.07-.19.2v22.74c0,.13.06.2.19.2Z"/>
    <path class="cls-4" d="m229.66,342.9c.84-.52,1.5-1.25,1.97-2.19.05-.13.14-.23.27-.28.13-.05.26-.04.39.04l1.13.64c.31.19.39.42.23.68-.62,1.34-1.56,2.4-2.81,3.19s-2.73,1.18-4.44,1.18c-1.82,0-3.35-.44-4.6-1.33-1.25-.88-2.14-2.12-2.69-3.7-.49-1.34-.74-3.19-.74-5.54,0-1.15.02-2.07.06-2.75.04-.68.14-1.32.29-1.91.44-1.74,1.33-3.13,2.67-4.18,1.34-1.04,2.95-1.57,4.85-1.57,2.26,0,4.03.6,5.32,1.81,1.29,1.21,2.11,2.91,2.47,5.1.16.86.23,2.2.23,4.02,0,.35-.17.52-.51.52h-12.47c-.13,0-.19.07-.19.2,0,1.34.08,2.32.23,2.93.29,1.21.89,2.16,1.81,2.87.92.71,2.08,1.06,3.49,1.06,1.17-.03,2.18-.3,3.02-.82Zm-6.6-14.18c-.83.68-1.38,1.6-1.64,2.75-.16.54-.26,1.45-.31,2.73,0,.13.06.2.19.2h10.02c.13,0,.19-.07.19-.2-.05-1.18-.13-2.04-.23-2.57-.29-1.21-.86-2.16-1.73-2.87-.87-.71-1.97-1.07-3.29-1.07s-2.36.34-3.2,1.02Z"/>
    <path class="cls-4" d="m245.11,321.21c-.52.66-.78,1.77-.78,3.35v.76c0,.13.06.2.19.2h4.21c.34,0,.51.17.51.52v1.57c0,.35-.17.52-.51.52h-4.21c-.13,0-.19.07-.19.2v16.99c0,.35-.17.52-.51.52h-1.71c-.34,0-.51-.17-.51-.52v-16.99c0-.13-.06-.2-.19-.2h-2.46c-.34,0-.51-.17-.51-.52v-1.57c0-.35.17-.52.51-.52h2.46c.13,0,.19-.07.19-.2v-.92c0-1.66.18-2.97.55-3.92.36-.95.99-1.65,1.89-2.09.9-.44,2.15-.66,3.76-.66h1.01c.34,0,.51.17.51.52v1.45c0,.35-.17.52-.51.52h-.78c-1.43,0-2.4.33-2.92.98Z"/>
    <path class="cls-4" d="m265.26,342.9c.84-.52,1.5-1.25,1.97-2.19.05-.13.14-.23.27-.28.13-.05.26-.04.39.04l1.13.64c.31.19.39.42.23.68-.62,1.34-1.56,2.4-2.81,3.19s-2.73,1.18-4.44,1.18c-1.82,0-3.35-.44-4.6-1.33-1.25-.88-2.14-2.12-2.69-3.7-.49-1.34-.74-3.19-.74-5.54,0-1.15.02-2.07.06-2.75.04-.68.14-1.32.29-1.91.44-1.74,1.33-3.13,2.67-4.18,1.34-1.04,2.95-1.57,4.85-1.57,2.26,0,4.03.6,5.32,1.81,1.29,1.21,2.11,2.91,2.47,5.1.16.86.23,2.2.23,4.02,0,.35-.17.52-.51.52h-12.47c-.13,0-.19.07-.19.2,0,1.34.08,2.32.23,2.93.29,1.21.89,2.16,1.81,2.87.92.71,2.08,1.06,3.49,1.06,1.17-.03,2.18-.3,3.02-.82Zm-6.6-14.18c-.83.68-1.38,1.6-1.64,2.75-.16.54-.26,1.45-.31,2.73,0,.13.06.2.19.2h10.02c.13,0,.19-.07.19-.2-.05-1.18-.13-2.04-.23-2.57-.29-1.21-.86-2.16-1.73-2.87-.87-.71-1.97-1.07-3.29-1.07s-2.36.34-3.2,1.02Z"/>
    <path class="cls-4" d="m288.91,327.05c1.29,1.23,1.93,2.87,1.93,4.9v13.38c0,.35-.17.52-.51.52h-1.75c-.34,0-.51-.17-.51-.52v-1.45c0-.08-.03-.13-.08-.16-.05-.03-.1,0-.16.08-.7.78-1.58,1.37-2.63,1.77-1.05.4-2.2.6-3.45.6-1.82,0-3.35-.48-4.58-1.45-1.23-.96-1.85-2.44-1.85-4.42s.71-3.6,2.12-4.76c1.42-1.17,3.38-1.75,5.9-1.75h4.52c.13,0,.2-.07.2-.2v-1.49c0-1.37-.37-2.44-1.11-3.23s-1.89-1.19-3.45-1.19c-1.22,0-2.22.24-3,.72s-1.27,1.15-1.48,2.01c-.08.32-.27.46-.58.4l-1.91-.24c-.34-.05-.49-.2-.47-.44.26-1.47,1.06-2.67,2.4-3.58,1.34-.91,3.01-1.37,5.01-1.37,2.34,0,4.15.62,5.44,1.85Zm-2.53,15.49c1.13-.79,1.7-1.85,1.7-3.19v-3.09c0-.13-.07-.2-.2-.2h-4.09c-1.71,0-3.09.36-4.13,1.08-1.04.72-1.56,1.73-1.56,3.01,0,1.18.4,2.07,1.21,2.67.8.6,1.83.9,3.08.9,1.53,0,2.86-.4,3.99-1.19Z"/>
    <path class="cls-4" d="m305.1,327.9h-4.25c-.13,0-.19.07-.19.2v11.73c0,1.29.28,2.19.84,2.71s1.44.78,2.63.78h.86c.34,0,.51.17.51.52v1.41c0,.35-.17.54-.51.56h-1.32c-1.87,0-3.29-.36-4.25-1.08-.96-.72-1.44-2.06-1.44-4.02v-12.61c0-.13-.07-.2-.19-.2h-2.22c-.34,0-.51-.17-.51-.52v-1.33c0-.35.17-.52.51-.52h2.22c.13,0,.19-.07.19-.2v-4.5c0-.35.17-.52.51-.52h1.68c.34,0,.51.17.51.52v4.5c0,.13.06.2.19.2h4.25c.34,0,.51.17.51.52v1.33c0,.35-.17.52-.51.52Z"/>
    <path class="cls-4" d="m311.55,321.29c-.39-.39-.58-.89-.58-1.51s.19-1.11.58-1.49.9-.56,1.52-.56,1.13.19,1.52.56.58.87.58,1.49-.19,1.12-.58,1.51c-.39.39-.9.58-1.52.58s-1.13-.19-1.52-.58Zm.16,24.04v-19.28c0-.35.17-.52.51-.52h1.75c.34,0,.51.17.51.52v19.28c0,.35-.17.52-.51.52h-1.75c-.34,0-.51-.17-.51-.52Z"/>
    <path class="cls-4" d="m334.56,327.13c1.23,1.26,1.85,2.95,1.85,5.06v13.14c0,.35-.17.52-.51.52h-1.75c-.34,0-.51-.17-.51-.52v-12.57c0-1.5-.43-2.71-1.29-3.64s-1.97-1.39-3.35-1.39-2.42.39-3.29,1.17c-.87.78-1.37,1.79-1.5,3.05v13.38c0,.35-.17.52-.51.52h-1.75c-.34,0-.51-.17-.51-.52v-19.28c0-.35.17-.52.51-.52h1.75c.34,0,.51.17.51.52v1.49c0,.08.03.14.08.18.05.04.09.02.12-.06,1.14-1.61,2.88-2.41,5.22-2.41,2.05,0,3.7.63,4.93,1.89Z"/>
    <path class="cls-4" d="m355.88,325.53h1.75c.34,0,.51.17.51.52v19.12c0,3-.84,5.2-2.53,6.59-1.69,1.39-3.99,2.09-6.9,2.09-.55,0-.96-.01-1.25-.04-.34-.03-.51-.21-.51-.56l.08-1.61c0-.38.17-.54.51-.48,2.75.13,4.75-.28,5.98-1.25,1.23-.96,1.85-2.57,1.85-4.82v-1.41c0-.08-.03-.13-.08-.16-.05-.03-.1,0-.16.08-1.2,1.58-2.88,2.37-5.07,2.37-1.69,0-3.19-.47-4.5-1.41-1.31-.94-2.19-2.26-2.63-3.98-.31-1.1-.47-2.73-.47-4.9,0-1.18.03-2.17.1-2.97.06-.8.2-1.53.41-2.17.47-1.61,1.31-2.9,2.53-3.88,1.22-.98,2.69-1.47,4.4-1.47,2.26,0,4,.76,5.22,2.29.05.08.1.11.16.08.05-.03.08-.08.08-.16v-1.37c0-.35.17-.52.51-.52Zm-.55,12.7c.03-.59.04-1.45.04-2.57,0-1.37-.01-2.28-.04-2.75-.03-.47-.09-.9-.19-1.31-.21-1.12-.72-2.06-1.54-2.79s-1.85-1.11-3.1-1.11-2.25.36-3.1,1.08c-.84.72-1.44,1.66-1.77,2.81-.26.86-.39,2.2-.39,4.02,0,1.96.13,3.31.39,4.06.26,1.12.82,2.06,1.69,2.79.87.74,1.93,1.1,3.18,1.1s2.32-.36,3.14-1.08c.82-.72,1.33-1.65,1.54-2.77.08-.4.13-.9.16-1.49Z"/>
    <path class="cls-4" d="m380.49,327.9h-4.25c-.13,0-.19.07-.19.2v11.73c0,1.29.28,2.19.84,2.71s1.44.78,2.63.78h.86c.34,0,.51.17.51.52v1.41c0,.35-.17.54-.51.56h-1.32c-1.87,0-3.29-.36-4.25-1.08-.96-.72-1.44-2.06-1.44-4.02v-12.61c0-.13-.07-.2-.19-.2h-2.22c-.34,0-.51-.17-.51-.52v-1.33c0-.35.17-.52.51-.52h2.22c.13,0,.19-.07.19-.2v-4.5c0-.35.17-.52.51-.52h1.68c.34,0,.51.17.51.52v4.5c0,.13.06.2.19.2h4.25c.34,0,.51.17.51.52v1.33c0,.35-.17.52-.51.52Z"/>
    <path class="cls-4" d="m400.19,327.13c1.23,1.26,1.85,2.95,1.85,5.06v13.14c0,.35-.17.52-.51.52h-1.75c-.34,0-.51-.17-.51-.52v-12.57c0-1.5-.43-2.71-1.29-3.64s-1.97-1.39-3.35-1.39-2.42.39-3.29,1.17c-.87.78-1.37,1.79-1.5,3.05v13.38c0,.35-.17.52-.51.52h-1.75c-.34,0-.51-.17-.51-.52v-27.08c0-.35.17-.52.51-.52h1.75c.34,0,.51.17.51.52v9.28c0,.08.03.14.08.18.05.04.09.02.12-.06,1.14-1.61,2.88-2.41,5.22-2.41,2.05,0,3.7.63,4.93,1.89Z"/>
    <path class="cls-4" d="m419.52,342.9c.84-.52,1.5-1.25,1.97-2.19.05-.13.14-.23.27-.28.13-.05.26-.04.39.04l1.13.64c.31.19.39.42.23.68-.62,1.34-1.56,2.4-2.81,3.19s-2.73,1.18-4.44,1.18c-1.82,0-3.35-.44-4.6-1.33-1.25-.88-2.14-2.12-2.69-3.7-.49-1.34-.74-3.19-.74-5.54,0-1.15.02-2.07.06-2.75.04-.68.14-1.32.29-1.91.44-1.74,1.33-3.13,2.67-4.18,1.34-1.04,2.95-1.57,4.85-1.57,2.26,0,4.03.6,5.32,1.81,1.29,1.21,2.11,2.91,2.47,5.1.16.86.23,2.2.23,4.02,0,.35-.17.52-.51.52h-12.47c-.13,0-.19.07-.19.2,0,1.34.08,2.32.23,2.93.29,1.21.89,2.16,1.81,2.87.92.71,2.08,1.06,3.49,1.06,1.17-.03,2.18-.3,3.02-.82Zm-6.6-14.18c-.83.68-1.38,1.6-1.64,2.75-.16.54-.26,1.45-.31,2.73,0,.13.06.2.19.2h10.02c.13,0,.19-.07.19-.2-.05-1.18-.13-2.04-.23-2.57-.29-1.21-.86-2.16-1.73-2.87-.87-.71-1.97-1.07-3.29-1.07s-2.36.34-3.2,1.02Z"/>
    <path class="cls-4" d="m449.6,342.9c.84-.52,1.5-1.25,1.97-2.19.05-.13.14-.23.27-.28.13-.05.26-.04.39.04l1.13.64c.31.19.39.42.23.68-.62,1.34-1.56,2.4-2.81,3.19s-2.73,1.18-4.44,1.18c-1.82,0-3.35-.44-4.6-1.33-1.25-.88-2.14-2.12-2.69-3.7-.49-1.34-.74-3.19-.74-5.54,0-1.15.02-2.07.06-2.75.04-.68.14-1.32.29-1.91.44-1.74,1.33-3.13,2.67-4.18,1.34-1.04,2.96-1.57,4.85-1.57,2.26,0,4.03.6,5.32,1.81,1.29,1.21,2.11,2.91,2.47,5.1.16.86.23,2.2.23,4.02,0,.35-.17.52-.51.52h-12.47c-.13,0-.2.07-.2.2,0,1.34.08,2.32.23,2.93.29,1.21.89,2.16,1.81,2.87.92.71,2.08,1.06,3.49,1.06,1.17-.03,2.18-.3,3.02-.82Zm-6.61-14.18c-.83.68-1.38,1.6-1.64,2.75-.16.54-.26,1.45-.31,2.73,0,.13.06.2.2.2h10.01c.13,0,.19-.07.19-.2-.05-1.18-.13-2.04-.23-2.57-.29-1.21-.86-2.16-1.73-2.87s-1.97-1.07-3.29-1.07-2.36.34-3.2,1.02Z"/>
    <path class="cls-4" d="m473.08,317.73h1.75c.34,0,.51.17.51.52v27.08c0,.35-.17.52-.51.52h-1.75c-.34,0-.51-.17-.51-.52v-1.53c0-.08-.03-.13-.08-.14-.05-.01-.1,0-.16.06-.57.78-1.28,1.38-2.12,1.81-.84.43-1.79.64-2.83.64-1.82,0-3.34-.48-4.58-1.45-1.23-.96-2.08-2.28-2.55-3.94-.36-1.21-.55-2.91-.55-5.1s.16-3.88.47-4.98c.47-1.71,1.33-3.06,2.57-4.04,1.25-.98,2.79-1.47,4.64-1.47,1.01,0,1.95.21,2.81.62s1.57,1.01,2.14,1.79c.05.08.1.11.16.08.05-.03.08-.08.08-.16v-9.28c0-.35.17-.52.51-.52Zm-.74,20.97c.1-.72.16-1.73.16-3.01s-.05-2.3-.16-3.03c-.1-.74-.29-1.39-.55-1.95-.31-.91-.82-1.64-1.54-2.19s-1.57-.82-2.55-.82c-1.04,0-1.94.27-2.69.8-.75.54-1.3,1.25-1.64,2.13-.31.59-.54,1.25-.68,1.99-.14.74-.21,1.76-.21,3.07s.05,2.24.16,2.95c.1.71.29,1.35.55,1.91.31.96.86,1.73,1.66,2.29.79.56,1.73.84,2.83.84s1.91-.28,2.61-.84,1.22-1.31,1.56-2.25c.23-.54.4-1.17.51-1.89Z"/>
    <path class="cls-4" d="m494.75,325.53h1.75c.34,0,.51.17.51.52v19.28c0,.35-.17.52-.51.52h-1.75c-.34,0-.51-.17-.51-.52v-1.53c0-.08-.03-.13-.08-.16-.05-.03-.1,0-.16.08-1.12,1.61-2.83,2.41-5.14,2.41-1.25,0-2.4-.26-3.45-.78-1.05-.52-1.88-1.28-2.49-2.27-.61-.99-.92-2.18-.92-3.58v-13.46c0-.35.17-.52.51-.52h1.75c.34,0,.51.17.51.52v12.61c0,1.53.42,2.74,1.25,3.64.83.9,1.96,1.35,3.39,1.35s2.66-.46,3.53-1.37,1.31-2.12,1.31-3.62v-12.61c0-.35.17-.52.51-.52Z"/>
    <path class="cls-4" d="m506.57,344.67c-1.34-1-2.25-2.36-2.75-4.08-.34-1.18-.51-2.84-.51-4.98,0-1.93.17-3.56.51-4.9.47-1.66,1.38-2.99,2.73-4,1.35-1,2.96-1.51,4.83-1.51s3.54.5,4.93,1.49c1.39.99,2.29,2.22,2.71,3.7.1.38.18.74.23,1.08v.08c0,.29-.16.47-.47.52l-1.71.2h-.12c-.23,0-.39-.15-.47-.44,0-.11-.03-.27-.08-.48-.23-1.02-.81-1.88-1.71-2.59-.91-.71-2.01-1.07-3.31-1.07s-2.38.36-3.25,1.07c-.87.71-1.44,1.65-1.7,2.83-.23,1.02-.35,2.37-.35,4.06s.12,3.13.35,4.1c.26,1.21.82,2.16,1.7,2.87.87.71,1.95,1.07,3.25,1.07s2.37-.34,3.29-1.02c.92-.68,1.49-1.55,1.7-2.59.03-.05.04-.12.04-.2l.04-.04c.03-.35.22-.5.58-.44l1.68.28c.34.05.49.25.47.6l-.16.68c-.39,1.55-1.29,2.81-2.69,3.78-1.4.96-3.05,1.45-4.95,1.45s-3.47-.5-4.81-1.51Z"/>
    <path class="cls-4" d="m537.2,327.05c1.29,1.23,1.93,2.87,1.93,4.9v13.38c0,.35-.17.52-.51.52h-1.75c-.34,0-.51-.17-.51-.52v-1.45c0-.08-.03-.13-.08-.16s-.1,0-.16.08c-.7.78-1.58,1.37-2.63,1.77-1.05.4-2.2.6-3.45.6-1.82,0-3.35-.48-4.58-1.45-1.23-.96-1.85-2.44-1.85-4.42s.71-3.6,2.12-4.76,3.38-1.75,5.9-1.75h4.52c.13,0,.19-.07.19-.2v-1.49c0-1.37-.37-2.44-1.11-3.23s-1.89-1.19-3.45-1.19c-1.22,0-2.22.24-3,.72s-1.27,1.15-1.48,2.01c-.08.32-.27.46-.58.4l-1.91-.24c-.34-.05-.49-.2-.47-.44.26-1.47,1.06-2.67,2.4-3.58,1.34-.91,3.01-1.37,5.01-1.37,2.34,0,4.15.62,5.44,1.85Zm-2.53,15.49c1.13-.79,1.7-1.85,1.7-3.19v-3.09c0-.13-.06-.2-.19-.2h-4.09c-1.71,0-3.09.36-4.13,1.08-1.04.72-1.56,1.73-1.56,3.01,0,1.18.4,2.07,1.21,2.67.8.6,1.83.9,3.08.9,1.53,0,2.86-.4,3.99-1.19Z"/>
    <path class="cls-4" d="m553.78,327.9h-4.25c-.13,0-.19.07-.19.2v11.73c0,1.29.28,2.19.84,2.71.56.52,1.43.78,2.63.78h.86c.34,0,.51.17.51.52v1.41c0,.35-.17.54-.51.56h-1.33c-1.87,0-3.29-.36-4.25-1.08-.96-.72-1.44-2.06-1.44-4.02v-12.61c0-.13-.06-.2-.19-.2h-2.22c-.34,0-.51-.17-.51-.52v-1.33c0-.35.17-.52.51-.52h2.22c.13,0,.19-.07.19-.2v-4.5c0-.35.17-.52.51-.52h1.68c.34,0,.51.17.51.52v4.5c0,.13.06.2.19.2h4.25c.34,0,.51.17.51.52v1.33c0,.35-.17.52-.51.52Z"/>
    <path class="cls-4" d="m560.52,321.29c-.39-.39-.58-.89-.58-1.51s.2-1.11.58-1.49.9-.56,1.52-.56,1.13.19,1.52.56c.39.38.58.87.58,1.49s-.19,1.12-.58,1.51c-.39.39-.9.58-1.52.58s-1.13-.19-1.52-.58Zm.16,24.04v-19.28c0-.35.17-.52.51-.52h1.75c.34,0,.51.17.51.52v19.28c0,.35-.17.52-.51.52h-1.75c-.34,0-.51-.17-.51-.52Z"/>
    <path class="cls-4" d="m573.36,344.69c-1.34-.99-2.27-2.36-2.79-4.1-.36-1.23-.55-2.88-.55-4.94s.17-3.67.51-4.9c.52-1.71,1.45-3.07,2.79-4.06,1.34-.99,2.97-1.49,4.89-1.49s3.47.5,4.81,1.49c1.34.99,2.25,2.33,2.75,4.02.36,1.29.55,2.93.55,4.94s-.18,3.71-.55,4.94c-.52,1.74-1.45,3.11-2.79,4.1-1.34.99-2.93,1.49-4.77,1.49s-3.51-.5-4.85-1.49Zm8.05-2.07c.88-.71,1.48-1.67,1.79-2.87.21-.86.31-2.21.31-4.06s-.1-3.28-.31-4.06c-.29-1.21-.88-2.16-1.77-2.87s-1.99-1.07-3.29-1.07-2.31.36-3.2,1.07c-.88.71-1.48,1.67-1.79,2.87-.21.78-.31,2.13-.31,4.06s.1,3.28.31,4.06c.29,1.21.88,2.16,1.77,2.87.9.71,1.99,1.07,3.29,1.07s2.31-.36,3.2-1.07Z"/>
    <path class="cls-4" d="m605.79,327.13c1.23,1.26,1.85,2.95,1.85,5.06v13.14c0,.35-.17.52-.51.52h-1.75c-.34,0-.51-.17-.51-.52v-12.57c0-1.5-.43-2.71-1.29-3.64-.86-.92-1.98-1.39-3.35-1.39s-2.42.39-3.29,1.17c-.87.78-1.37,1.79-1.5,3.05v13.38c0,.35-.17.52-.51.52h-1.75c-.34,0-.51-.17-.51-.52v-19.28c0-.35.17-.52.51-.52h1.75c.34,0,.51.17.51.52v1.49c0,.08.03.14.08.18s.09.02.12-.06c1.14-1.61,2.88-2.41,5.22-2.41,2.05,0,3.7.63,4.93,1.89Z"/>
    <path class="cls-4" d="m635.62,325.53h1.75c.34,0,.51.17.51.52v19.12c0,3-.84,5.2-2.53,6.59-1.69,1.39-3.99,2.09-6.9,2.09-.55,0-.96-.01-1.25-.04-.34-.03-.51-.21-.51-.56l.08-1.61c0-.38.17-.54.51-.48,2.75.13,4.75-.28,5.98-1.25,1.23-.96,1.85-2.57,1.85-4.82v-1.41c0-.08-.03-.13-.08-.16-.05-.03-.1,0-.16.08-1.2,1.58-2.88,2.37-5.07,2.37-1.69,0-3.19-.47-4.5-1.41-1.31-.94-2.19-2.26-2.63-3.98-.31-1.1-.47-2.73-.47-4.9,0-1.18.03-2.17.1-2.97.06-.8.2-1.53.41-2.17.47-1.61,1.31-2.9,2.53-3.88,1.22-.98,2.69-1.47,4.4-1.47,2.26,0,4,.76,5.22,2.29.05.08.1.11.16.08.05-.03.08-.08.08-.16v-1.37c0-.35.17-.52.51-.52Zm-.54,12.7c.03-.59.04-1.45.04-2.57,0-1.37-.01-2.28-.04-2.75-.03-.47-.09-.9-.2-1.31-.21-1.12-.72-2.06-1.54-2.79s-1.85-1.11-3.1-1.11-2.25.36-3.1,1.08c-.84.72-1.44,1.66-1.77,2.81-.26.86-.39,2.2-.39,4.02,0,1.96.13,3.31.39,4.06.26,1.12.83,2.06,1.7,2.79s1.93,1.1,3.18,1.1,2.32-.36,3.14-1.08c.82-.72,1.33-1.65,1.54-2.77.08-.4.13-.9.16-1.49Z"/>
    <path class="cls-4" d="m656.79,327.05c1.29,1.23,1.93,2.87,1.93,4.9v13.38c0,.35-.17.52-.51.52h-1.75c-.34,0-.51-.17-.51-.52v-1.45c0-.08-.03-.13-.08-.16s-.1,0-.16.08c-.7.78-1.58,1.37-2.63,1.77-1.05.4-2.2.6-3.45.6-1.82,0-3.35-.48-4.58-1.45-1.23-.96-1.85-2.44-1.85-4.42s.71-3.6,2.12-4.76,3.38-1.75,5.9-1.75h4.52c.13,0,.19-.07.19-.2v-1.49c0-1.37-.37-2.44-1.11-3.23s-1.89-1.19-3.45-1.19c-1.22,0-2.22.24-3,.72s-1.27,1.15-1.48,2.01c-.08.32-.27.46-.58.4l-1.91-.24c-.34-.05-.49-.2-.47-.44.26-1.47,1.06-2.67,2.4-3.58,1.34-.91,3.01-1.37,5.01-1.37,2.34,0,4.15.62,5.44,1.85Zm-2.53,15.49c1.13-.79,1.7-1.85,1.7-3.19v-3.09c0-.13-.06-.2-.19-.2h-4.09c-1.71,0-3.09.36-4.13,1.08-1.04.72-1.56,1.73-1.56,3.01,0,1.18.4,2.07,1.21,2.67.8.6,1.83.9,3.08.9,1.53,0,2.86-.4,3.99-1.19Z"/>
    <path class="cls-4" d="m681.05,335.69c0,2.22-.16,3.88-.47,4.98-.47,1.71-1.32,3.06-2.57,4.04s-2.79,1.47-4.64,1.47c-1.01,0-1.95-.21-2.81-.62-.86-.41-1.57-1.01-2.14-1.79-.05-.08-.1-.11-.16-.08-.05.03-.08.08-.08.16v9.28c0,.35-.17.52-.51.52h-1.75c-.34,0-.51-.17-.51-.52v-27.08c0-.35.17-.52.51-.52h1.75c.34,0,.51.17.51.52v1.53c0,.08.03.13.08.14.05.01.1,0,.16-.06.57-.78,1.28-1.38,2.12-1.81.84-.43,1.79-.64,2.83-.64,1.82,0,3.34.48,4.58,1.45,1.23.96,2.08,2.28,2.55,3.94.36,1.21.54,2.91.54,5.1Zm-2.98,3.07c.14-.74.21-1.76.21-3.07s-.05-2.24-.16-2.95c-.1-.71-.29-1.35-.55-1.91-.31-.96-.86-1.73-1.66-2.29-.79-.56-1.73-.84-2.83-.84s-1.91.28-2.61.84c-.7.56-1.22,1.31-1.56,2.25-.23.54-.4,1.17-.51,1.89-.1.72-.16,1.73-.16,3.01s.05,2.3.16,3.03c.1.74.29,1.39.55,1.95.31.91.82,1.64,1.54,2.19.71.55,1.57.82,2.55.82,1.04,0,1.93-.27,2.69-.8s1.3-1.25,1.64-2.13c.31-.59.54-1.25.68-1.99Z"/>
  </g>
</svg>